<mxfile host="app.diagrams.net" agent="Mozilla/5.0 (Macintosh; Intel Mac OS X 10_15_7) AppleWebKit/537.36 (KHTML, like Gecko) Chrome/134.0.0.0 Safari/537.36" version="26.1.1">
  <diagram name="페이지-1" id="hzBVdSMiUgAw1lPfztsv">
    <mxGraphModel dx="846" dy="776" grid="1" gridSize="10" guides="1" tooltips="1" connect="1" arrows="1" fold="1" page="1" pageScale="1" pageWidth="827" pageHeight="1169" math="0" shadow="0">
      <root>
        <mxCell id="0" />
        <mxCell id="1" parent="0" />
        <mxCell id="q26tEHDGM0-mZe2CJqFm-3" value="Cache&lt;div&gt;(Redis)&lt;/div&gt;" style="rounded=0;whiteSpace=wrap;html=1;" vertex="1" parent="1">
          <mxGeometry x="480" y="430" width="120" height="60" as="geometry" />
        </mxCell>
        <mxCell id="q26tEHDGM0-mZe2CJqFm-4" value="대시보드" style="rounded=0;whiteSpace=wrap;html=1;" vertex="1" parent="1">
          <mxGeometry x="240" y="430" width="120" height="60" as="geometry" />
        </mxCell>
        <mxCell id="q26tEHDGM0-mZe2CJqFm-5" value="랭킹시스템" style="text;html=1;align=center;verticalAlign=middle;whiteSpace=wrap;rounded=0;fontSize=25;" vertex="1" parent="1">
          <mxGeometry x="10" y="20" width="130" height="30" as="geometry" />
        </mxCell>
        <mxCell id="q26tEHDGM0-mZe2CJqFm-10" value="요구사항&lt;div&gt;- 출석을 위한 포인트 제도&lt;/div&gt;&lt;div&gt;- 참여할 때 +5 POINT, 참여하지 않으면 -1 point&lt;/div&gt;&lt;div&gt;&amp;nbsp; - 참여할 수 있는 시간이 정해져 있어야 한다(오후 2시 ~ 3시)&lt;/div&gt;&lt;div&gt;- 일별로 사용자별 리더보드 개발 (일 배치 사용)&lt;/div&gt;&lt;div&gt;- 지각에 대한 페널티&lt;/div&gt;&lt;div&gt;&lt;br&gt;&lt;/div&gt;&lt;div&gt;필수사항&lt;/div&gt;&lt;div&gt;- user별로 point가 +, - 되어야 한다&lt;/div&gt;&lt;div&gt;- user별로 일별 랭킹을 조회할 수 있어야 한다&lt;/div&gt;&lt;div&gt;- 일별 전체 랭킹을 조회할 수 있어야 한다&lt;/div&gt;&lt;div&gt;&lt;br&gt;&lt;/div&gt;&lt;div&gt;부가사항&lt;/div&gt;&lt;div&gt;- 레디스 캐싱을 사용&lt;/div&gt;" style="text;html=1;align=left;verticalAlign=top;whiteSpace=wrap;rounded=0;" vertex="1" parent="1">
          <mxGeometry x="20" y="60" width="300" height="240" as="geometry" />
        </mxCell>
        <mxCell id="q26tEHDGM0-mZe2CJqFm-18" value="" style="endArrow=classic;html=1;rounded=0;" edge="1" parent="1">
          <mxGeometry width="50" height="50" relative="1" as="geometry">
            <mxPoint x="360" y="450" as="sourcePoint" />
            <mxPoint x="480" y="450" as="targetPoint" />
          </mxGeometry>
        </mxCell>
        <mxCell id="q26tEHDGM0-mZe2CJqFm-19" value="" style="endArrow=classic;html=1;rounded=0;exitX=-0.017;exitY=0.642;exitDx=0;exitDy=0;exitPerimeter=0;" edge="1" parent="1" source="q26tEHDGM0-mZe2CJqFm-3">
          <mxGeometry width="50" height="50" relative="1" as="geometry">
            <mxPoint x="470" y="470" as="sourcePoint" />
            <mxPoint x="360" y="470" as="targetPoint" />
          </mxGeometry>
        </mxCell>
        <mxCell id="q26tEHDGM0-mZe2CJqFm-20" value="요청" style="text;html=1;align=center;verticalAlign=middle;whiteSpace=wrap;rounded=0;" vertex="1" parent="1">
          <mxGeometry x="390" y="420" width="60" height="30" as="geometry" />
        </mxCell>
        <mxCell id="q26tEHDGM0-mZe2CJqFm-21" value="응답" style="text;html=1;align=center;verticalAlign=middle;whiteSpace=wrap;rounded=0;" vertex="1" parent="1">
          <mxGeometry x="390" y="470" width="60" height="30" as="geometry" />
        </mxCell>
        <mxCell id="q26tEHDGM0-mZe2CJqFm-22" value="" style="endArrow=classic;html=1;rounded=0;" edge="1" parent="1">
          <mxGeometry width="50" height="50" relative="1" as="geometry">
            <mxPoint x="600" y="450" as="sourcePoint" />
            <mxPoint x="720" y="450" as="targetPoint" />
          </mxGeometry>
        </mxCell>
        <mxCell id="q26tEHDGM0-mZe2CJqFm-25" value="DB" style="strokeWidth=2;html=1;shape=mxgraph.flowchart.database;whiteSpace=wrap;" vertex="1" parent="1">
          <mxGeometry x="720" y="430" width="60" height="60" as="geometry" />
        </mxCell>
        <mxCell id="q26tEHDGM0-mZe2CJqFm-26" value="" style="endArrow=classic;html=1;rounded=0;exitX=-0.017;exitY=0.642;exitDx=0;exitDy=0;exitPerimeter=0;" edge="1" parent="1">
          <mxGeometry width="50" height="50" relative="1" as="geometry">
            <mxPoint x="718" y="470" as="sourcePoint" />
            <mxPoint x="600" y="471" as="targetPoint" />
          </mxGeometry>
        </mxCell>
        <mxCell id="q26tEHDGM0-mZe2CJqFm-27" value="변경된 값 존재하면 요청" style="text;html=1;align=center;verticalAlign=middle;whiteSpace=wrap;rounded=0;" vertex="1" parent="1">
          <mxGeometry x="630" y="420" width="70" height="30" as="geometry" />
        </mxCell>
        <mxCell id="q26tEHDGM0-mZe2CJqFm-28" value="응답 후 저장" style="text;html=1;align=center;verticalAlign=middle;whiteSpace=wrap;rounded=0;" vertex="1" parent="1">
          <mxGeometry x="630" y="470" width="70" height="30" as="geometry" />
        </mxCell>
        <mxCell id="q26tEHDGM0-mZe2CJqFm-29" value="배치" style="rounded=0;whiteSpace=wrap;html=1;" vertex="1" parent="1">
          <mxGeometry x="70" y="550" width="120" height="60" as="geometry" />
        </mxCell>
        <mxCell id="q26tEHDGM0-mZe2CJqFm-30" value="" style="endArrow=classic;html=1;rounded=0;entryX=0;entryY=0.5;entryDx=0;entryDy=0;exitX=0.5;exitY=0;exitDx=0;exitDy=0;" edge="1" parent="1" source="q26tEHDGM0-mZe2CJqFm-29" target="q26tEHDGM0-mZe2CJqFm-4">
          <mxGeometry width="50" height="50" relative="1" as="geometry">
            <mxPoint x="90" y="510" as="sourcePoint" />
            <mxPoint x="210" y="510" as="targetPoint" />
            <Array as="points">
              <mxPoint x="130" y="460" />
            </Array>
          </mxGeometry>
        </mxCell>
        <mxCell id="q26tEHDGM0-mZe2CJqFm-31" value="버튼" style="rounded=0;whiteSpace=wrap;html=1;" vertex="1" parent="1">
          <mxGeometry x="240" y="312" width="120" height="60" as="geometry" />
        </mxCell>
        <mxCell id="q26tEHDGM0-mZe2CJqFm-32" value="" style="endArrow=classic;html=1;rounded=0;exitX=0.5;exitY=1;exitDx=0;exitDy=0;entryX=0.5;entryY=0;entryDx=0;entryDy=0;" edge="1" parent="1" source="q26tEHDGM0-mZe2CJqFm-31" target="q26tEHDGM0-mZe2CJqFm-4">
          <mxGeometry width="50" height="50" relative="1" as="geometry">
            <mxPoint x="390" y="320" as="sourcePoint" />
            <mxPoint x="510" y="320" as="targetPoint" />
          </mxGeometry>
        </mxCell>
      </root>
    </mxGraphModel>
  </diagram>
</mxfile>
